<?xml version="1.0"?>
<svg xmlns="http://www.w3.org/2000/svg" xmlns:xlink="http://www.w3.org/1999/xlink" version="1.1" id="Capa_1" x="0px" y="0px" viewBox="0 0 512 512" style="enable-background:new 0 0 512 512;" xml:space="preserve" width="50px" height="50px" class=""><g><g>
	<g>
		<path d="M256,267.636c-11.877,0-20.834,13.857-20.834,32.232c0,18.376,8.957,32.233,20.834,32.233s20.833-13.857,20.833-32.233    C276.833,281.493,267.877,267.636,256,267.636z M256,317.098c-1.394-0.331-5.834-6.216-5.834-17.23    c0-11.079,4.494-16.969,5.809-17.234c1.364,0.265,5.858,6.155,5.858,17.234C261.833,310.882,257.393,316.767,256,317.098z" data-original="#000000" class="active-path" data-old_color="#000000" fill="#2f5572"/>
	</g>
</g><g>
	<g>
		<path d="M212.452,272.022c-2.887-2.916-6.855-4.458-11.476-4.458c-8.534,0.001-18.871,5.298-27.652,14.17    c-14.058,14.203-18.101,30.736-9.612,39.314c2.887,2.916,6.855,4.458,11.476,4.458c8.534,0,18.871-5.297,27.653-14.169    C216.899,297.133,220.941,280.599,212.452,272.022z M192.18,300.786c-6.61,6.679-13.442,9.721-16.992,9.721    c-0.386,0-0.64-0.038-0.789-0.072c-0.595-1.971,1.294-9.772,9.585-18.148c6.611-6.679,13.442-9.722,16.991-9.722    c0.386,0,0.64,0.038,0.79,0.072C202.36,284.607,200.471,292.409,192.18,300.786z" data-original="#000000" class="active-path" data-old_color="#000000" fill="#2f5572"/>
	</g>
</g><g>
	<g>
		<path d="M339.508,281.735c-8.781-8.873-19.118-14.17-27.652-14.17c-4.621,0-8.589,1.542-11.476,4.458    c-8.489,8.576-4.447,25.11,9.611,39.315c8.781,8.872,19.118,14.168,27.652,14.169h0.001c4.621,0,8.589-1.542,11.476-4.458    C357.609,312.471,353.567,295.938,339.508,281.735z M338.433,310.435c-0.149,0.034-0.402,0.072-0.788,0.072    c-3.55,0-10.382-3.042-16.992-9.721c-8.291-8.377-10.18-16.179-9.585-18.149c0.149-0.034,0.403-0.072,0.789-0.072    c3.55,0,10.381,3.042,16.992,9.722C337.139,300.663,339.028,308.464,338.433,310.435z" data-original="#000000" class="active-path" data-old_color="#000000" fill="#2f5572"/>
	</g>
</g><g>
	<g>
		<path d="M481.909,349.88h-5.901c-9.324-14.19-20.279-27.469-32.776-39.635c-2.968-2.888-7.715-2.826-10.606,0.142    c-2.889,2.968-2.826,7.716,0.142,10.606c9.256,9.011,17.585,18.679,24.987,28.887H328c-4.142,0-7.5,3.358-7.5,7.5    c0,4.142,3.358,7.5,7.5,7.5h153.909c8.321,0,15.091,7.106,15.091,15.841v6.386c0,17.174-13.305,31.146-29.659,31.146    c-9.465,0-18.445-4.819-24.021-12.892c-0.04-0.059-0.089-0.11-0.132-0.168c-2.505-3.688-4.286-7.987-5.067-12.71    c-0.677-4.087-4.545-6.847-8.625-6.174c-4.086,0.677-6.851,4.538-6.174,8.625c0.836,5.049,2.447,9.778,4.682,14.079    c-5.533,5.847-13.115,9.241-21.047,9.241c-9.465,0-18.444-4.819-24.02-12.892c-0.092-0.134-0.198-0.254-0.298-0.38    c-2.109-3.177-3.688-6.807-4.568-10.781c-0.896-4.045-4.906-6.597-8.944-5.7c-4.044,0.896-6.596,4.9-5.7,8.944    c0.913,4.124,2.336,8.002,4.187,11.576c-5.532,5.842-13.111,9.232-21.039,9.232c-9.465,0-18.445-4.819-24.02-12.891    c-0.094-0.136-0.202-0.258-0.303-0.386c-2.108-3.175-3.685-6.804-4.566-10.776c-0.896-4.044-4.897-6.596-8.945-5.699    c-4.044,0.897-6.596,4.901-5.699,8.945c0.914,4.123,2.337,8.001,4.189,11.575c-5.533,5.842-13.112,9.232-21.039,9.232    c-9.465,0-18.445-4.819-24.02-12.892c-0.091-0.132-0.197-0.251-0.295-0.376c-2.111-3.178-3.69-6.809-4.571-10.785    c-0.897-4.043-4.898-6.594-8.945-5.699c-4.044,0.896-6.596,4.901-5.699,8.945c0.914,4.123,2.337,8.001,4.188,11.574    c-5.532,5.842-13.111,9.232-21.039,9.232c-9.465,0-18.445-4.819-24.021-12.892c-0.093-0.135-0.201-0.256-0.302-0.384    c-2.108-3.176-3.685-6.805-4.565-10.778c-0.896-4.044-4.901-6.599-8.945-5.7c-4.044,0.896-6.596,4.901-5.7,8.945    c0.914,4.124,2.337,8.002,4.188,11.576c-5.532,5.841-13.111,9.232-21.039,9.232c-7.471,0-14.632-3.013-20.063-8.247    c-0.246-0.237-0.491-0.477-0.729-0.722c-0.237-0.245-0.47-0.494-0.699-0.747c-0.218-0.241-0.431-0.487-0.643-0.735    c-0.233-0.274-0.466-0.548-0.691-0.832c-0.173-0.219-0.337-0.446-0.505-0.67c-0.232-0.31-0.468-0.617-0.69-0.938    c-0.008-0.011-0.018-0.021-0.025-0.032c-2.093-3.031-3.691-6.489-4.638-10.271c-1.006-4.018-5.083-6.457-9.098-5.453    c-4.018,1.007-6.46,5.08-5.453,9.098c0.913,3.644,2.26,7.073,3.93,10.276c-5.536,5.867-13.131,9.274-21.078,9.274    c-7.233,0-14.178-2.822-19.542-7.753h0.011c-1.017-0.933-1.972-1.94-2.862-3.011c-0.032-0.039-0.065-0.078-0.097-0.117    c-0.39-0.474-0.763-0.962-1.126-1.461c-0.064-0.088-0.13-0.174-0.194-0.264c-2.052-2.883-3.647-6.16-4.648-9.734    c-1.117-3.989-5.256-6.316-9.245-5.199s-6.316,5.256-5.199,9.245c0.89,3.175,2.117,6.183,3.603,9.014    c-5.536,5.87-13.134,9.279-21.083,9.279C28.305,418.253,15,404.281,15,387.107v-6.386c0-8.735,6.769-15.841,15.091-15.841H292    c4.142,0,7.5-3.358,7.5-7.5c0-4.142-3.358-7.5-7.5-7.5H54.241c16.164-22.291,36.733-41.762,60.806-57.46    c2.989,1.737,6.745,2.654,11.078,2.654c7.272,0,15.679-2.533,23.675-7.133c10.979-6.317,18.301-14.617,20.669-22.532    c27.131-9.305,56.045-14.137,85.532-14.137c31.352,0,62.252,5.575,90.942,16.131c2.923,7.296,9.911,14.749,19.971,20.538    c7.995,4.599,16.402,7.132,23.673,7.133c0.001,0,0.001,0,0.002,0c3.098,0,5.895-0.476,8.335-1.379    c3.599,2.392,7.133,4.872,10.588,7.453c3.319,2.478,8.019,1.798,10.498-1.521c2.478-3.318,1.798-8.018-1.52-10.497    c-3.158-2.359-6.382-4.635-9.653-6.845c1.825-9.961-6.346-22.186-21.247-30.76c-7.995-4.6-16.402-7.133-23.674-7.133    c-7.327,0-13.003,2.624-16.109,7.406c-29.117-10.161-60.251-15.526-91.806-15.526c-30.315,0-60.069,4.847-88.09,14.177    c-3.25-3.921-8.509-6.056-15.113-6.056c-7.271,0-15.679,2.534-23.673,7.133c-13.466,7.747-21.44,18.478-21.506,27.823    c-29.072,18.811-53.423,42.81-71.628,70.53h-5.898C13.498,349.88,0,363.715,0,380.721v6.386c0,25.309,19.823,45.916,44.268,46.135    l36.003,53.15c2.994,4.421,9.041,7.63,14.378,7.63H344c4.142,0,7.5-3.358,7.5-7.5c0-4.142-3.358-7.5-7.5-7.5l-249.298,0.001    c-0.549-0.049-1.693-0.657-2.012-1.043l-9.709-14.333h74.018c4.142,0,7.5-3.358,7.5-7.5c0-4.142-3.358-7.5-7.5-7.5H72.82    l-12.445-18.372c5.326-2.076,10.251-5.184,14.476-9.184c8.165,7.732,18.934,12.162,30.191,12.162s22.025-4.429,30.191-12.162    c8.166,7.732,18.934,12.162,30.191,12.162c11.258,0,22.026-4.429,30.192-12.162c8.165,7.732,18.934,12.162,30.191,12.162    s22.026-4.429,30.191-12.162c8.165,7.732,18.934,12.162,30.191,12.162c11.256,0,22.025-4.43,30.192-12.162    c8.165,7.732,18.933,12.162,30.191,12.162c11.257,0,22.026-4.429,30.191-12.162c8.166,7.732,18.935,12.162,30.191,12.162    c11.257,0,22.026-4.429,30.192-12.162c4.225,4.001,9.15,7.108,14.476,9.185l-12.445,18.372H198c-4.142,0-7.5,3.358-7.5,7.5    c0,4.142,3.358,7.5,7.5,7.5h231.02l-9.681,14.292c-0.348,0.428-1.492,1.036-1.989,1.083H383c-4.142,0-7.5,3.358-7.5,7.5    c0,4.142,3.358,7.5,7.5,7.5h34.351c5.337,0,11.384-3.209,14.378-7.629l36.004-53.15C492.177,433.023,512,412.417,512,387.107    v-6.386C512,363.715,498.501,349.88,481.909,349.88z M363.915,259.393c4.552,0,10.605,1.92,16.194,5.135    c10.241,5.892,14.072,12.922,13.971,14.943c-0.394,0.22-1.49,0.603-3.492,0.603h-0.001c-4.552,0-10.606-1.92-16.193-5.134    c-10.24-5.892-14.072-12.924-13.972-14.943C360.815,259.776,361.912,259.393,363.915,259.393z M136.603,264.528    c5.588-3.215,11.642-5.135,16.193-5.135c2.003,0,3.1,0.383,3.493,0.604c0.1,2.02-3.732,9.051-13.971,14.943    c-5.588,3.215-11.642,5.135-16.194,5.135c-2.003,0-3.1-0.383-3.493-0.603C122.53,277.451,126.361,270.42,136.603,264.528z" data-original="#000000" class="active-path" data-old_color="#000000" fill="#2f5572"/>
	</g>
</g><g>
	<g>
		<path d="M323.256,68.282h-25.882c-4.142,0-7.5,3.358-7.5,7.5c0,4.142,3.358,7.5,7.5,7.5h25.882    c16.55,0,30.014,13.569,30.014,30.249c0,16.681-13.464,30.251-30.014,30.251H307c-4.142,0-7.5,3.358-7.5,7.5    c0,4.142,3.358,7.5,7.5,7.5h16.256c24.821,0,45.014-20.299,45.014-45.251C368.27,88.581,348.077,68.282,323.256,68.282z" data-original="#000000" class="active-path" data-old_color="#000000" fill="#2f5572"/>
	</g>
</g><g>
	<g>
		<path d="M271,143.781h-22.186c-21.467,0-38.933,17.554-38.933,39.13v20.538c0,4.142,3.358,7.5,7.5,7.5c4.142,0,7.5-3.358,7.5-7.5    v-20.538c0-13.305,10.736-24.13,23.933-24.13H271c4.142,0,7.5-3.358,7.5-7.5C278.5,147.139,275.142,143.781,271,143.781z" data-original="#000000" class="active-path" data-old_color="#000000" fill="#2f5572"/>
	</g>
</g><g>
	<g>
		<path d="M249,97.003h-58.504c-17.516,0-31.766-14.361-31.766-32.013s14.25-32.013,31.766-32.013H211.5c4.142,0,7.5-3.358,7.5-7.5    c0-4.142-3.358-7.5-7.5-7.5h-21.004c-25.787,0-46.766,21.09-46.766,47.013c0,25.924,20.979,47.013,46.766,47.013H249    c4.142,0,7.5-3.358,7.5-7.5C256.5,100.361,253.142,97.003,249,97.003z" data-original="#000000" class="active-path" data-old_color="#000000" fill="#2f5572"/>
	</g>
</g></g> </svg>
