<svg width="235.857470703125px" height="64.41248779296875px" xmlns="http://www.w3.org/2000/svg" viewBox="132.0712646484375 42.793756103515626 235.857470703125 64.41248779296875" style="background: rgb(47, 85, 114);" preserveAspectRatio="xMidYMid"><defs><filter id="editing-hover" x="-100%" y="-100%" width="300%" height="300%"><feFlood flood-color="#0b1d27" result="flood"></feFlood><feComposite operator="in" in2="SourceAlpha" in="flood" result="shadow"></feComposite><feOffset dx="2.9" dy="-1.3" in="SourceGraphic" result="offset-1"></feOffset><feOffset dx="-2.9" dy="1.3" in="shadow" result="offset-2"></feOffset><feMerge><feMergeNode in="offset-2"></feMergeNode><feMergeNode in="offset-1"></feMergeNode></feMerge></filter></defs><g filter="url(#editing-hover)"><g transform="translate(170.8149993866682, 85.5)"><path d="M11.42-18.68L11.42-18.68L11.42-18.68Q18.28-18.68 18.28-13.83L18.28-13.83L18.28-13.83Q18.28-11.17 16.58-9.58L16.58-9.58L16.58-9.58Q14.90-7.98 11.96-7.98L11.96-7.98L11.96-7.98Q10.58-7.98 9.52-8.76L9.52-8.76L9.52-8.76Q9.02-9.10 8.68-9.55L8.68-9.55L8.68-9.55Q10.72-9.55 11.80-10.79L11.80-10.79L11.80-10.79Q12.88-12.04 12.88-14.48L12.88-14.48L12.88-14.48Q12.88-16.91 10.47-16.91L10.47-16.91L9.80-16.91L9.80-16.91Q9.63-16.91 9.49-16.88L9.49-16.88L6.27 0L0.20 0L3.64-18.34L3.64-18.34Q6.64-18.62 8.37-18.65L8.37-18.65L8.37-18.65Q10.11-18.68 11.42-18.68ZM29.76-4.73L29.76-4.73L29.76-4.73Q30.46-4.26 30.46-3.21L30.46-3.21L30.46-3.21Q30.46-2.16 29.93-1.48L29.93-1.48L29.93-1.48Q29.40-0.81 28.53-0.36L28.53-0.36L28.53-0.36Q26.74 0.56 24.81 0.56L24.81 0.56L24.81 0.56Q22.88 0.56 21.74 0.14L21.74 0.14L21.74 0.14Q20.61-0.28 19.85-1.06L19.85-1.06L19.85-1.06Q18.37-2.55 18.37-5.26L18.37-5.26L18.37-5.26Q18.37-9.49 20.66-12.07L20.66-12.07L20.66-12.07Q23.13-14.84 27.41-14.84L27.41-14.84L27.41-14.84Q30.07-14.84 31.39-13.72L31.39-13.72L31.39-13.72Q32.37-12.88 32.37-11.51L32.37-11.51L32.37-11.51Q32.37-6.58 23.86-6.58L23.86-6.58L23.86-6.58Q23.74-5.85 23.74-5.24L23.74-5.24L23.74-5.24Q23.74-3.95 24.32-3.46L24.32-3.46L24.32-3.46Q24.89-2.97 25.96-2.97L25.96-2.97L25.96-2.97Q27.02-2.97 28.15-3.46L28.15-3.46L28.15-3.46Q29.29-3.95 29.76-4.73ZM24.05-7.78L24.05-7.78L24.05-7.78Q26.04-7.78 27.19-9.02L27.19-9.02L27.19-9.02Q28.34-10.19 28.34-12.07L28.34-12.07L28.34-12.07Q28.34-12.71 28.10-13.06L28.10-13.06L28.10-13.06Q27.86-13.41 27.38-13.41L27.38-13.41L27.38-13.41Q26.91-13.41 26.50-13.23L26.50-13.23L26.50-13.23Q26.10-13.05 25.68-12.43L25.68-12.43L25.68-12.43Q24.64-11.03 24.05-7.78ZM42.08-7.87L42.08-7.87L42.08-7.87Q43.09-9.66 43.09-11.48L43.09-11.48L43.09-11.48Q43.09-12.68 42.22-12.68L42.22-12.68L42.22-12.68Q41.55-12.68 40.85-11.54L40.85-11.54L40.85-11.54Q40.12-10.39 39.90-8.90L39.90-8.90L38.44 0L32.65 0.56L35.50-14.28L40.12-14.84L39.62-12.01L39.62-12.01Q40.99-14.84 44.07-14.84L44.07-14.84L44.07-14.84Q45.70-14.84 46.58-14L46.58-14L46.58-14Q47.46-13.16 47.46-11.44L47.46-11.44L47.46-11.44Q47.46-9.72 46.33-8.62L46.33-8.62L46.33-8.62Q45.19-7.53 43.26-7.53L43.26-7.53L43.26-7.53Q42.42-7.53 42.08-7.87ZM58.83-16.24L58.83-16.24L58.83-16.24Q59.22-16.91 59.22-17.64L59.22-17.64L59.22-17.64Q59.22-18.93 58.44-18.93L58.44-18.93L58.44-18.93Q57.23-18.93 56.73-16.46L56.73-16.46L56.31-14.28L58.86-14.28L58.69-13.02L56.06-13.02L53.54 0L47.88 0.56L50.57-13.02L48.58-13.02L48.83-14.28L50.79-14.28L51.38-16.49L51.38-16.49Q51.88-18.54 54.04-19.49L54.04-19.49L54.04-19.49Q55.61-20.16 58.24-20.16L58.24-20.16L58.24-20.16Q60.87-20.16 62.05-19.49L62.05-19.49L62.05-19.49Q63.22-18.82 63.22-17.92L63.22-17.92L63.22-17.92Q63.22-17.02 62.52-16.46L62.52-16.46L62.52-16.46Q61.82-15.90 61.04-15.90L61.04-15.90L61.04-15.90Q59.50-15.90 58.83-16.24ZM69.72-4.73L69.72-4.73L69.72-4.73Q70.42-4.26 70.42-3.21L70.42-3.21L70.42-3.21Q70.42-2.16 69.89-1.48L69.89-1.48L69.89-1.48Q69.36-0.81 68.49-0.36L68.49-0.36L68.49-0.36Q66.70 0.56 64.76 0.56L64.76 0.56L64.76 0.56Q62.83 0.56 61.70 0.14L61.70 0.14L61.70 0.14Q60.56-0.28 59.81-1.06L59.81-1.06L59.81-1.06Q58.32-2.55 58.32-5.26L58.32-5.26L58.32-5.26Q58.32-9.49 60.62-12.07L60.62-12.07L60.62-12.07Q63.08-14.84 67.37-14.84L67.37-14.84L67.37-14.84Q70.03-14.84 71.34-13.72L71.34-13.72L71.34-13.72Q72.32-12.88 72.32-11.51L72.32-11.51L72.32-11.51Q72.32-6.58 63.81-6.58L63.81-6.58L63.81-6.58Q63.70-5.85 63.70-5.24L63.70-5.24L63.70-5.24Q63.70-3.95 64.27-3.46L64.27-3.46L64.27-3.46Q64.85-2.97 65.91-2.97L65.91-2.97L65.91-2.97Q66.98-2.97 68.11-3.46L68.11-3.46L68.11-3.46Q69.24-3.95 69.72-4.73ZM64.01-7.78L64.01-7.78L64.01-7.78Q66.00-7.78 67.14-9.02L67.14-9.02L67.14-9.02Q68.29-10.19 68.29-12.07L68.29-12.07L68.29-12.07Q68.29-12.71 68.05-13.06L68.05-13.06L68.05-13.06Q67.82-13.41 67.34-13.41L67.34-13.41L67.34-13.41Q66.86-13.41 66.46-13.23L66.46-13.23L66.46-13.23Q66.05-13.05 65.63-12.43L65.63-12.43L65.63-12.43Q64.60-11.03 64.01-7.78ZM87.02-11.65L87.02-11.65L87.02-11.65Q87.02-10.47 86.04-9.74L86.04-9.74L86.04-9.74Q85.06-9.02 83.47-9.02L83.47-9.02L83.47-9.02Q82.80-9.02 82.40-9.21L82.40-9.21L82.40-9.21Q82.71-9.94 82.81-10.85L82.81-10.85L82.81-10.85Q82.91-11.76 82.91-12.01L82.91-12.01L82.91-12.01Q82.91-13.19 82.10-13.19L82.10-13.19L82.10-13.19Q81.54-13.19 80.91-12.49L80.91-12.49L80.91-12.49Q80.28-11.79 79.74-10.70L79.74-10.70L79.74-10.70Q78.57-8.18 78.57-5.63L78.57-5.63L78.57-5.63Q78.57-4.23 79.10-3.60L79.10-3.60L79.10-3.60Q79.63-2.97 80.81-2.97L80.81-2.97L80.81-2.97Q82.43-2.97 83.72-4.31L83.72-4.31L83.72-4.31Q84.08-4.73 84.28-5.21L84.28-5.21L84.28-5.21Q85.34-4.65 85.34-3.11L85.34-3.11L85.34-3.11Q85.34-1.54 83.61-0.50L83.61-0.50L83.61-0.50Q81.82 0.56 78.96 0.56L78.96 0.56L78.96 0.56Q73.28 0.56 73.28-5.46L73.28-5.46L73.28-5.46Q73.28-9.86 75.77-12.38L75.77-12.38L75.77-12.38Q78.18-14.84 82.60-14.84L82.60-14.84L82.60-14.84Q87.02-14.84 87.02-11.65ZM88.23-2.80L88.23-2.80L88.23-2.80Q88.23-3.56 88.62-5.46L88.62-5.46L90.10-13.02L88.45-13.02L88.56-13.86L88.56-13.86Q91.92-14.87 95.17-17.33L95.17-17.33L96.52-17.33L95.84-14.28L98.03-14.28L97.78-13.02L95.62-13.02L94.19-5.46L94.19-5.46Q93.83-3.72 93.83-3.14L93.83-3.14L93.83-3.14Q93.83-1.79 95.00-1.51L95.00-1.51L95.00-1.51Q94.72-0.56 93.72 0L93.72 0L93.72 0Q92.71 0.56 91.28 0.56L91.28 0.56L91.28 0.56Q89.85 0.56 89.04-0.34L89.04-0.34L89.04-0.34Q88.23-1.23 88.23-2.80ZM114.60-18.68L114.60-18.68L114.60-18.68Q121.46-18.68 121.46-13.83L121.46-13.83L121.46-13.83Q121.46-11.17 119.76-9.58L119.76-9.58L119.76-9.58Q118.08-7.98 115.14-7.98L115.14-7.98L115.14-7.98Q113.76-7.98 112.70-8.76L112.70-8.76L112.70-8.76Q112.20-9.10 111.86-9.55L111.86-9.55L111.86-9.55Q113.90-9.55 114.98-10.79L114.98-10.79L114.98-10.79Q116.06-12.04 116.06-14.48L116.06-14.48L116.06-14.48Q116.06-16.91 113.65-16.91L113.65-16.91L112.98-16.91L112.98-16.91Q112.81-16.91 112.67-16.88L112.67-16.88L109.45 0L103.38 0L106.82-18.34L106.82-18.34Q109.82-18.62 111.55-18.65L111.55-18.65L111.55-18.65Q113.29-18.68 114.60-18.68ZM128.32-1.54L128.32-1.54L128.32-1.54Q127.46 0.56 124.68 0.56L124.68 0.56L124.68 0.56Q123.26 0.56 122.36-0.42L122.36-0.42L122.36-0.42Q121.60-1.29 121.60-2.16L121.60-2.16L121.60-2.16Q121.60-4.42 122.64-8.85L122.64-8.85L123.68-14.28L129.36-14.84L127.65-5.99L127.65-5.99Q127.18-3.92 127.18-3.19L127.18-3.19L127.18-3.19Q127.18-1.60 128.32-1.54ZM124.18-18.17L124.18-18.17L124.18-18.17Q124.18-19.26 125.09-19.85L125.09-19.85L125.09-19.85Q126.00-20.44 127.32-20.44L127.32-20.44L127.32-20.44Q128.63-20.44 129.43-19.85L129.43-19.85L129.43-19.85Q130.23-19.26 130.23-18.17L130.23-18.17L130.23-18.17Q130.23-17.08 129.35-16.52L129.35-16.52L129.35-16.52Q128.46-15.96 127.15-15.96L127.15-15.96L127.15-15.96Q125.83-15.96 125.01-16.52L125.01-16.52L125.01-16.52Q124.18-17.08 124.18-18.17ZM142.04-4.73L142.04-4.73L142.04-4.73Q142.74-4.26 142.74-3.21L142.74-3.21L142.74-3.21Q142.74-2.16 142.21-1.48L142.21-1.48L142.21-1.48Q141.68-0.81 140.81-0.36L140.81-0.36L140.81-0.36Q139.02 0.56 137.09 0.56L137.09 0.56L137.09 0.56Q135.16 0.56 134.02 0.14L134.02 0.14L134.02 0.14Q132.89-0.28 132.13-1.06L132.13-1.06L132.13-1.06Q130.65-2.55 130.65-5.26L130.65-5.26L130.65-5.26Q130.65-9.49 132.94-12.07L132.94-12.07L132.94-12.07Q135.41-14.84 139.69-14.84L139.69-14.84L139.69-14.84Q142.35-14.84 143.67-13.72L143.67-13.72L143.67-13.72Q144.65-12.88 144.65-11.51L144.65-11.51L144.65-11.51Q144.65-6.58 136.14-6.58L136.14-6.58L136.14-6.58Q136.02-5.85 136.02-5.24L136.02-5.24L136.02-5.24Q136.02-3.95 136.60-3.46L136.60-3.46L136.60-3.46Q137.17-2.97 138.24-2.97L138.24-2.97L138.24-2.97Q139.30-2.97 140.43-3.46L140.43-3.46L140.43-3.46Q141.57-3.95 142.04-4.73ZM136.33-7.78L136.33-7.78L136.33-7.78Q138.32-7.78 139.47-9.02L139.47-9.02L139.47-9.02Q140.62-10.19 140.62-12.07L140.62-12.07L140.62-12.07Q140.62-12.71 140.38-13.06L140.38-13.06L140.38-13.06Q140.14-13.41 139.66-13.41L139.66-13.41L139.66-13.41Q139.19-13.41 138.78-13.23L138.78-13.23L138.78-13.23Q138.38-13.05 137.96-12.43L137.96-12.43L137.96-12.43Q136.92-11.03 136.33-7.78ZM153.97-9.83L153.97-9.83L153.97-9.83Q154.36-10.86 154.36-11.76L154.36-11.76L154.36-11.76Q154.36-13.41 153.02-13.41L153.02-13.41L153.02-13.41Q152.32-13.41 151.75-12.78L151.75-12.78L151.75-12.78Q151.17-12.15 151.17-11.37L151.17-11.37L151.17-11.37Q151.17-10.81 151.62-10.36L151.62-10.36L151.62-10.36Q152.26-9.74 153.92-8.74L153.92-8.74L153.92-8.74Q155.57-7.73 156.20-6.90L156.20-6.90L156.20-6.90Q156.83-6.08 156.83-4.94L156.83-4.94L156.83-4.94Q156.83-3.81 156.28-2.77L156.28-2.77L156.28-2.77Q155.74-1.74 154.76-1.01L154.76-1.01L154.76-1.01Q152.66 0.56 149.30 0.56L149.30 0.56L149.30 0.56Q147.48 0.56 146.08-0.39L146.08-0.39L146.08-0.39Q144.68-1.32 144.68-2.41L144.68-2.41L144.68-2.41Q144.68-3.50 145.47-4.14L145.47-4.14L145.47-4.14Q146.27-4.79 147.45-4.79L147.45-4.79L147.45-4.79Q148.62-4.79 149.35-4.34L149.35-4.34L149.35-4.34Q148.99-3.42 148.99-2.80L148.99-2.80L148.99-2.80Q148.99-0.95 150.56-0.95L150.56-0.95L150.56-0.95Q151.23-0.95 151.68-1.37L151.68-1.37L151.68-1.37Q152.12-1.79 152.12-2.52L152.12-2.52L152.12-2.52Q152.12-3.95 149.72-5.46L149.72-5.46L149.72-5.46Q147.76-6.75 147.31-7.25L147.31-7.25L147.31-7.25Q146.55-8.15 146.55-9.27L146.55-9.27L146.55-9.27Q146.55-10.39 147.08-11.45L147.08-11.45L147.08-11.45Q147.62-12.52 148.60-13.27L148.60-13.27L148.60-13.27Q150.64-14.84 154.20-14.84L154.20-14.84L154.20-14.84Q156.02-14.84 157.09-14.11L157.09-14.11L157.09-14.11Q158.17-13.38 158.17-12.15L158.17-12.15L158.17-12.15Q158.17-10.92 157.43-10.22L157.43-10.22L157.43-10.22Q156.69-9.52 155.34-9.52L155.34-9.52L155.34-9.52Q154.42-9.52 153.97-9.83Z" fill="#72cbfd"></path></g></g><style>text {
  font-size: 64px;
  font-family: Arial Black;
  dominant-baseline: central;
  text-anchor: middle;
}</style></svg>