<svg width="259.02001953125px" height="69.21497802734375px" xmlns="http://www.w3.org/2000/svg" viewBox="120.489990234375 40.392510986328126 259.02001953125 69.21497802734375" style="background: rgb(24, 39, 49);" preserveAspectRatio="xMidYMid"><defs><filter id="editing-hover" x="-100%" y="-100%" width="300%" height="300%"><feFlood flood-color="#182731" result="flood"></feFlood><feComposite operator="in" in2="SourceAlpha" in="flood" result="shadow"></feComposite><feOffset dx="-4" dy="-4" in="SourceGraphic" result="offset-1"></feOffset><feOffset dx="4" dy="4" in="shadow" result="offset-2"></feOffset><feMerge><feMergeNode in="offset-2"></feMergeNode><feMergeNode in="offset-1"></feMergeNode></feMerge></filter></defs><g filter="url(#editing-hover)"><g transform="translate(162.3300030529499, 86.625)"><path d="M12.65-20.68L12.65-20.68L12.65-20.68Q20.24-20.68 20.24-15.31L20.24-15.31L20.24-15.31Q20.24-12.37 18.35-10.60L18.35-10.60L18.35-10.60Q16.49-8.83 13.24-8.83L13.24-8.83L13.24-8.83Q11.72-8.83 10.54-9.70L10.54-9.70L10.54-9.70Q9.98-10.07 9.61-10.57L9.61-10.57L9.61-10.57Q11.87-10.57 13.07-11.95L13.07-11.95L13.07-11.95Q14.26-13.33 14.26-16.03L14.26-16.03L14.26-16.03Q14.26-18.72 11.59-18.72L11.59-18.72L10.85-18.72L10.85-18.72Q10.66-18.72 10.51-18.69L10.51-18.69L6.94 0L0.22 0L4.03-20.30L4.03-20.30Q7.35-20.61 9.27-20.65L9.27-20.65L9.27-20.65Q11.19-20.68 12.65-20.68ZM32.95-5.24L32.95-5.24L32.95-5.24Q33.73-4.71 33.73-3.55L33.73-3.55L33.73-3.55Q33.73-2.39 33.14-1.64L33.14-1.64L33.14-1.64Q32.55-0.90 31.59-0.40L31.59-0.40L31.59-0.40Q29.60 0.62 27.47 0.62L27.47 0.62L27.47 0.62Q25.33 0.62 24.07 0.15L24.07 0.15L24.07 0.15Q22.82-0.31 21.98-1.18L21.98-1.18L21.98-1.18Q20.34-2.82 20.34-5.83L20.34-5.83L20.34-5.83Q20.34-10.51 22.88-13.36L22.88-13.36L22.88-13.36Q25.61-16.43 30.35-16.43L30.35-16.43L30.35-16.43Q33.29-16.43 34.75-15.19L34.75-15.19L34.75-15.19Q35.84-14.26 35.84-12.74L35.84-12.74L35.84-12.74Q35.84-7.29 26.41-7.29L26.41-7.29L26.41-7.29Q26.29-6.48 26.29-5.80L26.29-5.80L26.29-5.80Q26.29-4.37 26.92-3.83L26.92-3.83L26.92-3.83Q27.56-3.29 28.74-3.29L28.74-3.29L28.74-3.29Q29.91-3.29 31.17-3.83L31.17-3.83L31.17-3.83Q32.43-4.37 32.95-5.24ZM26.63-8.62L26.63-8.62L26.63-8.62Q28.83-8.62 30.10-9.98L30.10-9.98L30.10-9.98Q31.37-11.28 31.37-13.36L31.37-13.36L31.37-13.36Q31.37-14.07 31.11-14.46L31.11-14.46L31.11-14.46Q30.84-14.85 30.32-14.85L30.32-14.85L30.32-14.85Q29.79-14.85 29.34-14.65L29.34-14.65L29.34-14.65Q28.89-14.45 28.43-13.76L28.43-13.76L28.43-13.76Q27.28-12.21 26.63-8.62ZM46.59-8.71L46.59-8.71L46.59-8.71Q47.71-10.70 47.71-12.71L47.71-12.71L47.71-12.71Q47.71-14.04 46.75-14.04L46.75-14.04L46.75-14.04Q46.00-14.04 45.23-12.77L45.23-12.77L45.23-12.77Q44.42-11.50 44.17-9.86L44.17-9.86L42.56 0L36.15 0.62L39.31-15.81L44.42-16.43L43.87-13.30L43.87-13.30Q45.38-16.43 48.79-16.43L48.79-16.43L48.79-16.43Q50.59-16.43 51.57-15.50L51.57-15.50L51.57-15.50Q52.55-14.57 52.55-12.66L52.55-12.66L52.55-12.66Q52.55-10.76 51.29-9.55L51.29-9.55L51.29-9.55Q50.03-8.34 47.89-8.34L47.89-8.34L47.89-8.34Q46.97-8.34 46.59-8.71ZM65.13-17.98L65.13-17.98L65.13-17.98Q65.56-18.72 65.56-19.53L65.56-19.53L65.56-19.53Q65.56-20.96 64.70-20.96L64.70-20.96L64.70-20.96Q63.36-20.96 62.81-18.23L62.81-18.23L62.34-15.81L65.16-15.81L64.98-14.41L62.06-14.41L59.27 0L53.01 0.62L55.99-14.41L53.78-14.41L54.06-15.81L56.23-15.81L56.88-18.26L56.88-18.26Q57.44-20.52 59.83-21.58L59.83-21.58L59.83-21.58Q61.57-22.32 64.48-22.32L64.48-22.32L64.48-22.32Q67.39-22.32 68.70-21.58L68.70-21.58L68.70-21.58Q70.00-20.83 70.00-19.84L70.00-19.84L70.00-19.84Q70.00-18.85 69.22-18.23L69.22-18.23L69.22-18.23Q68.45-17.61 67.58-17.61L67.58-17.61L67.58-17.61Q65.88-17.61 65.13-17.98ZM77.19-5.24L77.19-5.24L77.19-5.24Q77.96-4.71 77.96-3.55L77.96-3.55L77.96-3.55Q77.96-2.39 77.38-1.64L77.38-1.64L77.38-1.64Q76.79-0.90 75.83-0.40L75.83-0.40L75.83-0.40Q73.84 0.62 71.70 0.62L71.70 0.62L71.70 0.62Q69.56 0.62 68.31 0.15L68.31 0.15L68.31 0.15Q67.05-0.31 66.22-1.18L66.22-1.18L66.22-1.18Q64.57-2.82 64.57-5.83L64.57-5.83L64.57-5.83Q64.57-10.51 67.11-13.36L67.11-13.36L67.11-13.36Q69.84-16.43 74.59-16.43L74.59-16.43L74.59-16.43Q77.53-16.43 78.99-15.19L78.99-15.19L78.99-15.19Q80.07-14.26 80.07-12.74L80.07-12.74L80.07-12.74Q80.07-7.29 70.65-7.29L70.65-7.29L70.65-7.29Q70.52-6.48 70.52-5.80L70.52-5.80L70.52-5.80Q70.52-4.37 71.16-3.83L71.16-3.83L71.16-3.83Q71.80-3.29 72.97-3.29L72.97-3.29L72.97-3.29Q74.15-3.29 75.41-3.83L75.41-3.83L75.41-3.83Q76.66-4.37 77.19-5.24ZM70.87-8.62L70.87-8.62L70.87-8.62Q73.07-8.62 74.34-9.98L74.34-9.98L74.34-9.98Q75.61-11.28 75.61-13.36L75.61-13.36L75.61-13.36Q75.61-14.07 75.35-14.46L75.35-14.46L75.35-14.46Q75.08-14.85 74.55-14.85L74.55-14.85L74.55-14.85Q74.03-14.85 73.58-14.65L73.58-14.65L73.58-14.65Q73.13-14.45 72.66-13.76L72.66-13.76L72.66-13.76Q71.52-12.21 70.87-8.62ZM96.35-12.90L96.35-12.90L96.35-12.90Q96.35-11.59 95.26-10.79L95.26-10.79L95.26-10.79Q94.18-9.98 92.41-9.98L92.41-9.98L92.41-9.98Q91.67-9.98 91.23-10.20L91.23-10.20L91.23-10.20Q91.57-11.01 91.68-12.01L91.68-12.01L91.68-12.01Q91.79-13.02 91.79-13.30L91.79-13.30L91.79-13.30Q91.79-14.60 90.89-14.60L90.89-14.60L90.89-14.60Q90.27-14.60 89.57-13.83L89.57-13.83L89.57-13.83Q88.88-13.05 88.29-11.84L88.29-11.84L88.29-11.84Q86.99-9.05 86.99-6.23L86.99-6.23L86.99-6.23Q86.99-4.68 87.57-3.98L87.57-3.98L87.57-3.98Q88.16-3.29 89.47-3.29L89.47-3.29L89.47-3.29Q91.26-3.29 92.69-4.77L92.69-4.77L92.69-4.77Q93.09-5.24 93.31-5.77L93.31-5.77L93.31-5.77Q94.49-5.15 94.49-3.44L94.49-3.44L94.49-3.44Q94.49-1.71 92.57-0.56L92.57-0.56L92.57-0.56Q90.58 0.62 87.42 0.62L87.42 0.62L87.42 0.62Q81.13 0.62 81.13-6.04L81.13-6.04L81.13-6.04Q81.13-10.91 83.89-13.70L83.89-13.70L83.89-13.70Q86.55-16.43 91.45-16.43L91.45-16.43L91.45-16.43Q96.35-16.43 96.35-12.90ZM97.68-3.10L97.68-3.10L97.68-3.10Q97.68-3.94 98.11-6.04L98.11-6.04L99.76-14.41L97.93-14.41L98.05-15.35L98.05-15.35Q101.77-16.46 105.37-19.19L105.37-19.19L106.86-19.19L106.11-15.81L108.53-15.81L108.25-14.41L105.86-14.41L104.28-6.04L104.28-6.04Q103.88-4.12 103.88-3.47L103.88-3.47L103.88-3.47Q103.88-1.98 105.18-1.67L105.18-1.67L105.18-1.67Q104.87-0.62 103.76 0L103.76 0L103.76 0Q102.64 0.62 101.06 0.62L101.06 0.62L101.06 0.62Q99.48 0.62 98.58-0.37L98.58-0.37L98.58-0.37Q97.68-1.36 97.68-3.10ZM126.88-20.68L126.88-20.68L126.88-20.68Q134.48-20.68 134.48-15.31L134.48-15.31L134.48-15.31Q134.48-12.37 132.59-10.60L132.59-10.60L132.59-10.60Q130.73-8.83 127.47-8.83L127.47-8.83L127.47-8.83Q125.95-8.83 124.77-9.70L124.77-9.70L124.77-9.70Q124.22-10.07 123.84-10.57L123.84-10.57L123.84-10.57Q126.11-10.57 127.30-11.95L127.30-11.95L127.30-11.95Q128.49-13.33 128.49-16.03L128.49-16.03L128.49-16.03Q128.49-18.72 125.83-18.72L125.83-18.72L125.08-18.72L125.08-18.72Q124.90-18.72 124.74-18.69L124.74-18.69L121.18 0L114.45 0L118.26-20.30L118.26-20.30Q121.58-20.61 123.50-20.65L123.50-20.65L123.50-20.65Q125.43-20.68 126.88-20.68ZM142.07-1.71L142.07-1.71L142.07-1.71Q141.11 0.62 138.04 0.62L138.04 0.62L138.04 0.62Q136.46 0.62 135.47-0.46L135.47-0.46L135.47-0.46Q134.63-1.43 134.63-2.39L134.63-2.39L134.63-2.39Q134.63-4.90 135.78-9.80L135.78-9.80L136.93-15.81L143.22-16.43L141.33-6.63L141.33-6.63Q140.80-4.34 140.80-3.53L140.80-3.53L140.80-3.53Q140.80-1.77 142.07-1.71ZM137.48-20.12L137.48-20.12L137.48-20.12Q137.48-21.33 138.49-21.98L138.49-21.98L138.49-21.98Q139.50-22.63 140.96-22.63L140.96-22.63L140.96-22.63Q142.41-22.63 143.30-21.98L143.30-21.98L143.30-21.98Q144.18-21.33 144.18-20.12L144.18-20.12L144.18-20.12Q144.18-18.91 143.20-18.29L143.20-18.29L143.20-18.29Q142.23-17.67 140.77-17.67L140.77-17.67L140.77-17.67Q139.31-17.67 138.40-18.29L138.40-18.29L138.40-18.29Q137.48-18.91 137.48-20.12ZM157.26-5.24L157.26-5.24L157.26-5.24Q158.04-4.71 158.04-3.55L158.04-3.55L158.04-3.55Q158.04-2.39 157.45-1.64L157.45-1.64L157.45-1.64Q156.86-0.90 155.90-0.40L155.90-0.40L155.90-0.40Q153.91 0.62 151.78 0.62L151.78 0.62L151.78 0.62Q149.64 0.62 148.38 0.15L148.38 0.15L148.38 0.15Q147.13-0.31 146.29-1.18L146.29-1.18L146.29-1.18Q144.65-2.82 144.65-5.83L144.65-5.83L144.65-5.83Q144.65-10.51 147.19-13.36L147.19-13.36L147.19-13.36Q149.92-16.43 154.66-16.43L154.66-16.43L154.66-16.43Q157.60-16.43 159.06-15.19L159.06-15.19L159.06-15.19Q160.15-14.26 160.15-12.74L160.15-12.74L160.15-12.74Q160.15-7.29 150.72-7.29L150.72-7.29L150.72-7.29Q150.60-6.48 150.60-5.80L150.60-5.80L150.60-5.80Q150.60-4.37 151.23-3.83L151.23-3.83L151.23-3.83Q151.87-3.29 153.05-3.29L153.05-3.29L153.05-3.29Q154.22-3.29 155.48-3.83L155.48-3.83L155.48-3.83Q156.74-4.37 157.26-5.24ZM150.94-8.62L150.94-8.62L150.94-8.62Q153.14-8.62 154.41-9.98L154.41-9.98L154.41-9.98Q155.68-11.28 155.68-13.36L155.68-13.36L155.68-13.36Q155.68-14.07 155.42-14.46L155.42-14.46L155.42-14.46Q155.15-14.85 154.63-14.85L154.63-14.85L154.63-14.85Q154.10-14.85 153.65-14.65L153.65-14.65L153.65-14.65Q153.20-14.45 152.74-13.76L152.74-13.76L152.74-13.76Q151.59-12.21 150.94-8.62ZM170.47-10.88L170.47-10.88L170.47-10.88Q170.90-12.03 170.90-13.02L170.90-13.02L170.90-13.02Q170.90-14.85 169.41-14.85L169.41-14.85L169.41-14.85Q168.64-14.85 168.00-14.15L168.00-14.15L168.00-14.15Q167.37-13.45 167.37-12.59L167.37-12.59L167.37-12.59Q167.37-11.97 167.86-11.47L167.86-11.47L167.86-11.47Q168.58-10.79 170.41-9.67L170.41-9.67L170.41-9.67Q172.24-8.56 172.93-7.64L172.93-7.64L172.93-7.64Q173.63-6.73 173.63-5.47L173.63-5.47L173.63-5.47Q173.63-4.22 173.03-3.07L173.03-3.07L173.03-3.07Q172.42-1.92 171.34-1.12L171.34-1.12L171.34-1.12Q169.01 0.62 165.29 0.62L165.29 0.62L165.29 0.62Q163.28 0.62 161.73-0.43L161.73-0.43L161.73-0.43Q160.18-1.46 160.18-2.67L160.18-2.67L160.18-2.67Q160.18-3.88 161.06-4.59L161.06-4.59L161.06-4.59Q161.94-5.30 163.25-5.30L163.25-5.30L163.25-5.30Q164.55-5.30 165.35-4.80L165.35-4.80L165.35-4.80Q164.95-3.78 164.95-3.10L164.95-3.10L164.95-3.10Q164.95-1.05 166.69-1.05L166.69-1.05L166.69-1.05Q167.43-1.05 167.93-1.52L167.93-1.52L167.93-1.52Q168.42-1.98 168.42-2.79L168.42-2.79L168.42-2.79Q168.42-4.37 165.76-6.04L165.76-6.04L165.76-6.04Q163.59-7.47 163.09-8.03L163.09-8.03L163.09-8.03Q162.25-9.02 162.25-10.26L162.25-10.26L162.25-10.26Q162.25-11.50 162.84-12.68L162.84-12.68L162.84-12.68Q163.43-13.86 164.52-14.69L164.52-14.69L164.52-14.69Q166.78-16.43 170.72-16.43L170.72-16.43L170.72-16.43Q172.73-16.43 173.93-15.62L173.93-15.62L173.93-15.62Q175.12-14.82 175.12-13.45L175.12-13.45L175.12-13.45Q175.12-12.09 174.30-11.31L174.30-11.31L174.30-11.31Q173.48-10.54 171.99-10.54L171.99-10.54L171.99-10.54Q170.96-10.54 170.47-10.88Z" fill="#a7d4ec"></path></g></g><style>text {
  font-size: 64px;
  font-family: Arial Black;
  dominant-baseline: central;
  text-anchor: middle;
}</style></svg>